# xmcd
# Copyright (C) 1995-1998 Ti Kan
#
# Track frame offsets:
#       150
#       17798
#       34313
#       54913
#       83173
#       101383
#       123595
#       140355
#       161505
#       178828
#
# Disc length: 2770 seconds
#
# Revision: 2
# Processed by: cddbd v1.4PL0 Copyright (c) Steve Scherf et al.
# Submitted via: CD-Transfer v1.0
#
DISCID=7d0ad00a
DTITLE=Double - Blue
DYEAR=2000
DGENRE=
TTITLE0=Woman Of The World
TTITLE1=I Know A Place
TTITLE2=The Capitain Of Her Heart
TTITLE3=Your Prayer Takes Me Off
TTITLE4=Rangoon Moon
TTITLE5=Urban Nomads
TTITLE6=Love Is A Plane
TTITLE7=Tomorrow
TTITLE8=I Know A Place
TTITLE9=Your Prayer Takes Me Off
EXTD=
EXTT0=
EXTT1=
EXTT2=
EXTT3=
EXTT4=
EXTT5=
EXTT6=
EXTT7=
EXTT8=
EXTT9=
PLAYORDER=
